STARTFONT 2.1
COMMENT Created by fdbbdf
FONT courier12bif
SIZE 12 78 78
FONTBOUNDINGBOX 10 13 0 -4
STARTPROPERTIES 4
Ownership "  Copyright (c) 1984 Adobe Systems, Inc.  allchars 75orig/CB14.bits  WIDTHERR 0 0  GUIDELINES -3 0 7 9 DONE  TOTAL BITMAP BYTES 1862  "
FONT_ASCENT 9
FONT_DESCENT 4
DEFAULT_CHAR 32
ENDPROPERTIES
CHARS 95
STARTCHAR sp
ENCODING -1 32
SWIDTH 0 0
DWIDTH 8 0
BBX 7 1 1 -1
BITMAP
0000
ENDCHAR
STARTCHAR !
ENCODING -1 33
SWIDTH 0 0
DWIDTH 8 0
BBX 7 9 1 -1
BITMAP
0c00
0c00
0c00
1800
1800
1800
0000
3000
3000
ENDCHAR
STARTCHAR "
ENCODING -1 34
SWIDTH 0 0
DWIDTH 8 0
BBX 7 5 1 3
BITMAP
6c00
6c00
2400
0000
0000
ENDCHAR
STARTCHAR #
ENCODING -1 35
SWIDTH 0 0
DWIDTH 8 0
BBX 9 11 0 -2
BITMAP
1b00
1b00
1b00
7f80
3600
3600
3600
ff00
6c00
6c00
6c00
ENDCHAR
STARTCHAR $
ENCODING -1 36
SWIDTH 0 0
DWIDTH 8 0
BBX 8 12 1 -3
BITMAP
0c00
0c00
1f00
3300
3000
1800
0c00
c600
c600
7c00
3000
3000
ENDCHAR
STARTCHAR %
ENCODING -1 37
SWIDTH 0 0
DWIDTH 8 0
BBX 8 9 1 -1
BITMAP
7000
d800
d900
7600
1800
6e00
9b00
1b00
0e00
ENDCHAR
STARTCHAR &
ENCODING -1 38
SWIDTH 0 0
DWIDTH 8 0
BBX 8 10 1 -2
BITMAP
1c00
3400
3400
3000
7600
dc00
cc00
ce00
7700
0000
ENDCHAR
STARTCHAR '
ENCODING -1 39
SWIDTH 0 0
DWIDTH 8 0
BBX 6 3 1 5
BITMAP
1800
1800
3000
ENDCHAR
STARTCHAR (
ENCODING -1 40
SWIDTH 0 0
DWIDTH 8 0
BBX 6 11 1 -3
BITMAP
0c00
1800
1800
3000
3000
3000
3000
3000
3000
3000
1800
ENDCHAR
STARTCHAR )
ENCODING -1 41
SWIDTH 0 0
DWIDTH 8 0
BBX 6 11 1 -3
BITMAP
1800
0c00
0c00
0c00
0c00
0c00
0c00
0c00
1800
1800
3000
ENDCHAR
STARTCHAR *
ENCODING -1 42
SWIDTH 0 0
DWIDTH 8 0
BBX 8 7 1 1
BITMAP
2400
1800
7e00
1800
2400
0000
0000
ENDCHAR
STARTCHAR +
ENCODING -1 43
SWIDTH 0 0
DWIDTH 8 0
BBX 8 7 1 0
BITMAP
1800
1800
1800
ff00
1800
1800
1800
ENDCHAR
STARTCHAR ,
ENCODING -1 44
SWIDTH 0 0
DWIDTH 8 0
BBX 6 3 1 -2
BITMAP
1800
1800
3000
ENDCHAR
STARTCHAR -
ENCODING -1 45
SWIDTH 0 0
DWIDTH 8 0
BBX 6 1 1 3
BITMAP
7c00
ENDCHAR
STARTCHAR .
ENCODING -1 46
SWIDTH 0 0
DWIDTH 8 0
BBX 6 2 1 -1
BITMAP
1800
1800
ENDCHAR
STARTCHAR /
ENCODING -1 47
SWIDTH 0 0
DWIDTH 8 0
BBX 8 9 1 -1
BITMAP
0100
0300
0600
0c00
1800
3000
6000
c000
8000
ENDCHAR
STARTCHAR 0
ENCODING -1 48
SWIDTH 0 0
DWIDTH 8 0
BBX 7 9 1 -1
BITMAP
1c00
3600
3600
6600
6600
6600
6c00
6c00
3800
ENDCHAR
STARTCHAR 1
ENCODING -1 49
SWIDTH 0 0
DWIDTH 8 0
BBX 6 9 2 -1
BITMAP
1800
7800
1800
1800
3000
3000
3000
3000
fc00
ENDCHAR
STARTCHAR 2
ENCODING -1 50
SWIDTH 0 0
DWIDTH 8 0
BBX 7 9 1 -1
BITMAP
3c00
6600
6600
0600
0c00
1800
3000
6600
fe00
ENDCHAR
STARTCHAR 3
ENCODING -1 51
SWIDTH 0 0
DWIDTH 8 0
BBX 7 9 1 -1
BITMAP
3c00
6600
0600
0c00
1800
0c00
0c00
cc00
7800
ENDCHAR
STARTCHAR 4
ENCODING -1 52
SWIDTH 0 0
DWIDTH 8 0
BBX 8 9 1 -1
BITMAP
0200
0600
0e00
1e00
3600
6c00
ff00
0c00
1e00
ENDCHAR
STARTCHAR 5
ENCODING -1 53
SWIDTH 0 0
DWIDTH 8 0
BBX 8 9 1 -1
BITMAP
1f00
1800
3000
3c00
0e00
0600
0600
cc00
7800
ENDCHAR
STARTCHAR 6
ENCODING -1 54
SWIDTH 0 0
DWIDTH 8 0
BBX 7 9 1 -1
BITMAP
1e00
3000
6000
7c00
e600
c600
c600
cc00
7800
ENDCHAR
STARTCHAR 7
ENCODING -1 55
SWIDTH 0 0
DWIDTH 8 0
BBX 7 9 1 -1
BITMAP
7e00
c600
0c00
0c00
1800
1800
3000
3000
6000
ENDCHAR
STARTCHAR 8
ENCODING -1 56
SWIDTH 0 0
DWIDTH 8 0
BBX 8 9 1 -1
BITMAP
1e00
3300
6300
6600
3c00
6600
c600
cc00
7800
ENDCHAR
STARTCHAR 9
ENCODING -1 57
SWIDTH 0 0
DWIDTH 8 0
BBX 7 9 1 -1
BITMAP
3c00
6600
c600
c600
ce00
7c00
0c00
1800
f000
ENDCHAR
STARTCHAR :
ENCODING -1 58
SWIDTH 0 0
DWIDTH 8 0
BBX 6 7 1 -1
BITMAP
0c00
0c00
0000
0000
0000
1800
1800
ENDCHAR
STARTCHAR ;
ENCODING -1 59
SWIDTH 0 0
DWIDTH 8 0
BBX 6 8 1 -2
BITMAP
0c00
0c00
0000
0000
0000
1800
1800
3000
ENDCHAR
STARTCHAR <
ENCODING -1 60
SWIDTH 0 0
DWIDTH 8 0
BBX 8 7 1 0
BITMAP
0300
0e00
3800
e000
3800
0e00
0300
ENDCHAR
STARTCHAR =
ENCODING -1 61
SWIDTH 0 0
DWIDTH 8 0
BBX 6 3 1 2
BITMAP
fc00
0000
fc00
ENDCHAR
STARTCHAR >
ENCODING -1 62
SWIDTH 0 0
DWIDTH 8 0
BBX 8 7 1 0
BITMAP
c000
7000
1c00
0700
1c00
7000
c000
ENDCHAR
STARTCHAR ?
ENCODING -1 63
SWIDTH 0 0
DWIDTH 8 0
BBX 7 9 1 -1
BITMAP
3c00
6600
6600
0c00
1800
1800
0000
3000
3000
ENDCHAR
STARTCHAR @
ENCODING -1 64
SWIDTH 0 0
DWIDTH 8 0
BBX 8 9 1 -1
BITMAP
1f00
3200
6e00
5a00
5200
5a00
6e00
2000
3c00
ENDCHAR
STARTCHAR A
ENCODING -1 65
SWIDTH 0 0
DWIDTH 8 0
BBX 8 9 1 -1
BITMAP
1e00
0600
0e00
1b00
1b00
3f00
3300
6300
f300
ENDCHAR
STARTCHAR B
ENCODING -1 66
SWIDTH 0 0
DWIDTH 8 0
BBX 8 9 1 -1
BITMAP
7e00
3300
3300
3300
7e00
6300
6300
6700
fe00
ENDCHAR
STARTCHAR C
ENCODING -1 67
SWIDTH 0 0
DWIDTH 8 0
BBX 8 9 1 -1
BITMAP
3d00
6700
6300
c000
c000
c000
c000
e600
7c00
ENDCHAR
STARTCHAR D
ENCODING -1 68
SWIDTH 0 0
DWIDTH 8 0
BBX 8 9 1 -1
BITMAP
7c00
3600
3300
3300
6300
6300
6600
6e00
f800
ENDCHAR
STARTCHAR E
ENCODING -1 69
SWIDTH 0 0
DWIDTH 8 0
BBX 8 9 1 -1
BITMAP
7f00
3100
3400
3c00
3c00
6400
6200
6600
fc00
ENDCHAR
STARTCHAR F
ENCODING -1 70
SWIDTH 0 0
DWIDTH 8 0
BBX 8 9 1 -1
BITMAP
7f00
3100
3400
3c00
3c00
6400
6000
6000
f000
ENDCHAR
STARTCHAR G
ENCODING -1 71
SWIDTH 0 0
DWIDTH 8 0
BBX 8 9 1 -1
BITMAP
3d00
6700
6300
c000
ce00
c600
c600
ee00
7c00
ENDCHAR
STARTCHAR H
ENCODING -1 72
SWIDTH 0 0
DWIDTH 8 0
BBX 9 9 1 -1
BITMAP
7b80
3300
3300
3300
3e00
6600
6600
6600
ef00
ENDCHAR
STARTCHAR I
ENCODING -1 73
SWIDTH 0 0
DWIDTH 8 0
BBX 8 9 1 -1
BITMAP
3f00
0c00
0c00
0c00
1800
1800
1800
1800
7e00
ENDCHAR
STARTCHAR J
ENCODING -1 74
SWIDTH 0 0
DWIDTH 8 0
BBX 8 9 1 -1
BITMAP
1f00
0600
0600
0600
0c00
cc00
cc00
cc00
7800
ENDCHAR
STARTCHAR K
ENCODING -1 75
SWIDTH 0 0
DWIDTH 8 0
BBX 9 9 1 -1
BITMAP
7b80
3300
3600
3c00
3800
6c00
6c00
6600
f700
ENDCHAR
STARTCHAR L
ENCODING -1 76
SWIDTH 0 0
DWIDTH 8 0
BBX 8 9 1 -1
BITMAP
3c00
1800
1800
1800
3000
3000
3100
3300
fe00
ENDCHAR
STARTCHAR M
ENCODING -1 77
SWIDTH 0 0
DWIDTH 8 0
BBX 9 9 0 -1
BITMAP
e380
6180
7380
7780
df00
db00
db00
c300
e380
ENDCHAR
STARTCHAR N
ENCODING -1 78
SWIDTH 0 0
DWIDTH 8 0
BBX 9 9 1 -1
BITMAP
7780
3300
3300
3b00
6a00
6e00
6600
6600
f200
ENDCHAR
STARTCHAR O
ENCODING -1 79
SWIDTH 0 0
DWIDTH 8 0
BBX 8 9 1 -1
BITMAP
1e00
3300
3300
6300
6300
6300
6600
6600
3c00
ENDCHAR
STARTCHAR P
ENCODING -1 80
SWIDTH 0 0
DWIDTH 8 0
BBX 8 9 1 -1
BITMAP
7e00
3300
3300
3300
6600
7c00
6000
6000
f000
ENDCHAR
STARTCHAR Q
ENCODING -1 81
SWIDTH 0 0
DWIDTH 8 0
BBX 8 11 1 -3
BITMAP
1e00
3300
3300
6300
6300
6300
6600
6600
3c00
7600
dc00
ENDCHAR
STARTCHAR R
ENCODING -1 82
SWIDTH 0 0
DWIDTH 8 0
BBX 8 9 1 -1
BITMAP
7e00
3300
3300
3300
6600
7c00
6c00
6600
f700
ENDCHAR
STARTCHAR S
ENCODING -1 83
SWIDTH 0 0
DWIDTH 8 0
BBX 8 9 1 -1
BITMAP
3d00
6700
6300
7000
3c00
0e00
c600
e600
bc00
ENDCHAR
STARTCHAR T
ENCODING -1 84
SWIDTH 0 0
DWIDTH 8 0
BBX 8 9 1 -1
BITMAP
ff00
db00
9900
1800
3000
3000
3000
3000
fc00
ENDCHAR
STARTCHAR U
ENCODING -1 85
SWIDTH 0 0
DWIDTH 8 0
BBX 9 9 1 -1
BITMAP
f780
6300
6300
6300
c600
c600
c600
cc00
7800
ENDCHAR
STARTCHAR V
ENCODING -1 86
SWIDTH 0 0
DWIDTH 8 0
BBX 9 9 1 -1
BITMAP
f780
6300
6600
6600
6c00
6c00
7800
3000
3000
ENDCHAR
STARTCHAR W
ENCODING -1 87
SWIDTH 0 0
DWIDTH 8 0
BBX 9 9 1 -1
BITMAP
f180
6080
6c80
6d80
6d00
7f00
7e00
6c00
6c00
ENDCHAR
STARTCHAR X
ENCODING -1 88
SWIDTH 0 0
DWIDTH 9 0
BBX 9 9 1 -1
BITMAP
7b80
3300
3600
1c00
1c00
1c00
3600
6600
ef00
ENDCHAR
STARTCHAR Y
ENCODING -1 89
SWIDTH 0 0
DWIDTH 8 0
BBX 9 9 1 -1
BITMAP
f780
6300
6600
3c00
3800
1800
3000
3000
fc00
ENDCHAR
STARTCHAR Z
ENCODING -1 90
SWIDTH 0 0
DWIDTH 8 0
BBX 8 9 1 -1
BITMAP
3f00
6600
4600
0c00
1800
3000
3200
6600
fc00
ENDCHAR
STARTCHAR [
ENCODING -1 91
SWIDTH 0 0
DWIDTH 8 0
BBX 8 11 1 -3
BITMAP
1c00
1800
1800
1800
1800
3000
3000
3000
3000
3000
3800
ENDCHAR
STARTCHAR \
ENCODING -1 92
SWIDTH 0 0
DWIDTH 8 0
BBX 4 10 3 -1
BITMAP
c000
c000
c000
c000
6000
6000
6000
3000
3000
3000
ENDCHAR
STARTCHAR ]
ENCODING -1 93
SWIDTH 0 0
DWIDTH 8 0
BBX 8 11 1 -3
BITMAP
1c00
0c00
0c00
0c00
0c00
0c00
1800
1800
1800
1800
3800
ENDCHAR
STARTCHAR ^
ENCODING -1 94
SWIDTH 0 0
DWIDTH 8 0
BBX 8 4 0 4
BITMAP
0800
1c00
3600
6300
ENDCHAR
STARTCHAR _
ENCODING -1 95
SWIDTH 0 0
DWIDTH 8 0
BBX 9 3 0 -4
BITMAP
0000
0000
ff80
ENDCHAR
STARTCHAR `
ENCODING -1 96
SWIDTH 0 0
DWIDTH 8 0
BBX 8 3 1 5
BITMAP
1800
1800
3000
ENDCHAR
STARTCHAR a
ENCODING -1 97
SWIDTH 0 0
DWIDTH 8 0
BBX 7 7 1 -1
BITMAP
3c00
6600
0600
7e00
cc00
cc00
7e00
ENDCHAR
STARTCHAR b
ENCODING -1 98
SWIDTH 0 0
DWIDTH 8 0
BBX 7 9 1 -1
BITMAP
7000
3000
3c00
3600
6600
6600
6600
7600
ec00
ENDCHAR
STARTCHAR c
ENCODING -1 99
SWIDTH 0 0
DWIDTH 8 0
BBX 7 7 1 -1
BITMAP
3e00
6600
6200
c000
c000
e600
7c00
ENDCHAR
STARTCHAR d
ENCODING -1 100
SWIDTH 0 0
DWIDTH 8 0
BBX 8 9 1 -1
BITMAP
0700
0600
3600
6e00
cc00
cc00
cc00
ec00
7600
ENDCHAR
STARTCHAR e
ENCODING -1 101
SWIDTH 0 0
DWIDTH 8 0
BBX 7 7 1 -1
BITMAP
3c00
6600
6600
fe00
c000
cc00
7800
ENDCHAR
STARTCHAR f
ENCODING -1 102
SWIDTH 0 0
DWIDTH 8 0
BBX 8 9 1 -1
BITMAP
0f00
1800
7e00
1800
1800
3000
3000
3000
fc00
ENDCHAR
STARTCHAR g
ENCODING -1 103
SWIDTH 0 0
DWIDTH 8 0
BBX 8 10 1 -4
BITMAP
3f00
6600
c600
c600
cc00
cc00
7c00
0c00
1800
f000
ENDCHAR
STARTCHAR h
ENCODING -1 104
SWIDTH 0 0
DWIDTH 8 0
BBX 7 9 1 -1
BITMAP
e000
6000
7c00
6600
6600
c600
cc00
cc00
ce00
ENDCHAR
STARTCHAR i
ENCODING -1 105
SWIDTH 0 0
DWIDTH 8 0
BBX 7 10 1 -1
BITMAP
0c00
0c00
0000
3800
1800
1800
3000
3000
3000
fc00
ENDCHAR
STARTCHAR j
ENCODING -1 106
SWIDTH 0 0
DWIDTH 8 0
BBX 7 13 1 -4
BITMAP
0600
0600
0000
3c00
0c00
0c00
0c00
0c00
1800
1800
1800
3000
e000
ENDCHAR
STARTCHAR k
ENCODING -1 107
SWIDTH 0 0
DWIDTH 8 0
BBX 8 9 1 -1
BITMAP
7000
3000
3300
3600
3c00
7800
6800
6c00
ee00
ENDCHAR
STARTCHAR l
ENCODING -1 108
SWIDTH 0 0
DWIDTH 8 0
BBX 7 9 1 -1
BITMAP
3800
1800
1800
1800
3000
3000
3000
3000
fc00
ENDCHAR
STARTCHAR m
ENCODING -1 109
SWIDTH 0 0
DWIDTH 8 0
BBX 8 7 1 -1
BITMAP
d700
6b00
6b00
6b00
d600
d600
d600
ENDCHAR
STARTCHAR n
ENCODING -1 110
SWIDTH 0 0
DWIDTH 8 0
BBX 7 7 1 -1
BITMAP
dc00
6600
6600
c600
cc00
cc00
ce00
ENDCHAR
STARTCHAR o
ENCODING -1 111
SWIDTH 0 0
DWIDTH 8 0
BBX 7 7 1 -1
BITMAP
3c00
6600
c600
c600
c600
cc00
7800
ENDCHAR
STARTCHAR p
ENCODING -1 112
SWIDTH 0 0
DWIDTH 8 0
BBX 8 10 1 -4
BITMAP
7600
3b00
3300
3300
3300
7600
6c00
6000
6000
f800
ENDCHAR
STARTCHAR q
ENCODING -1 113
SWIDTH 0 0
DWIDTH 8 0
BBX 7 10 1 -4
BITMAP
3e00
6c00
cc00
cc00
cc00
dc00
7800
1800
1800
7c00
ENDCHAR
STARTCHAR r
ENCODING -1 114
SWIDTH 0 0
DWIDTH 8 0
BBX 8 7 1 -1
BITMAP
7700
3900
3000
3000
6000
6000
f800
ENDCHAR
STARTCHAR s
ENCODING -1 115
SWIDTH 0 0
DWIDTH 8 0
BBX 7 7 1 -1
BITMAP
3e00
6600
6000
3c00
0600
ce00
fc00
ENDCHAR
STARTCHAR t
ENCODING -1 116
SWIDTH 0 0
DWIDTH 8 0
BBX 7 9 1 -1
BITMAP
1000
3000
7e00
3000
3000
6000
6000
6600
3c00
ENDCHAR
STARTCHAR u
ENCODING -1 117
SWIDTH 0 0
DWIDTH 8 0
BBX 7 7 1 -1
BITMAP
ee00
6600
6600
cc00
cc00
cc00
7600
ENDCHAR
STARTCHAR v
ENCODING -1 118
SWIDTH 0 0
DWIDTH 8 0
BBX 8 7 1 -1
BITMAP
e700
6600
6c00
6c00
7800
3000
3000
ENDCHAR
STARTCHAR w
ENCODING -1 119
SWIDTH 0 0
DWIDTH 8 0
BBX 9 7 1 -1
BITMAP
f380
6180
6d80
6d80
7f00
3600
3600
ENDCHAR
STARTCHAR x
ENCODING -1 120
SWIDTH 0 0
DWIDTH 8 0
BBX 8 7 1 -1
BITMAP
7700
3600
3c00
1800
3c00
6c00
ee00
ENDCHAR
STARTCHAR y
ENCODING -1 121
SWIDTH 0 0
DWIDTH 8 0
BBX 9 10 1 -4
BITMAP
7b80
3300
3600
3600
3c00
1800
1800
3000
3000
f800
ENDCHAR
STARTCHAR z
ENCODING -1 122
SWIDTH 0 0
DWIDTH 8 0
BBX 7 7 1 -1
BITMAP
7e00
6600
0c00
1800
3000
6c00
fc00
ENDCHAR
STARTCHAR {
ENCODING -1 123
SWIDTH 0 0
DWIDTH 8 0
BBX 7 11 1 -3
BITMAP
0c00
1800
1800
1800
1800
7000
3000
3000
3000
3000
1800
ENDCHAR
STARTCHAR |
ENCODING -1 124
SWIDTH 0 0
DWIDTH 8 0
BBX 7 11 1 -3
BITMAP
1800
1800
1800
1800
1800
1800
3000
3000
3000
3000
3000
ENDCHAR
STARTCHAR }
ENCODING -1 125
SWIDTH 0 0
DWIDTH 8 0
BBX 5 11 2 -3
BITMAP
6000
3000
3000
3000
3000
3800
6000
6000
6000
6000
c000
ENDCHAR
STARTCHAR ~
ENCODING -1 126
SWIDTH 0 0
DWIDTH 8 0
BBX 7 3 1 2
BITMAP
7200
fe00
9c00
ENDCHAR
ENDFONT
